<svg id="Calque_1" data-name="Calque 1" xmlns="http://www.w3.org/2000/svg" viewBox="0 0 200 200"><defs><style>.cls-1{fill:#e6e6e6;}.cls-2{fill:#45617e;}.cls-3{fill:#99b815;}.cls-4{fill:#364a5e;}.cls-5{fill:#fff;}</style></defs><path id="Tracé_134" data-name="Tracé 134" class="cls-1" d="M46.69,27.31H153.31A9.69,9.69,0,0,1,163,37V167.84a9.69,9.69,0,0,1-9.69,9.7H46.69a9.69,9.69,0,0,1-9.69-9.7V37A9.69,9.69,0,0,1,46.69,27.31Z"/><path id="Tracé_135" data-name="Tracé 135" class="cls-2" d="M46.69,135.93V46.69A9.69,9.69,0,0,1,56.38,37h87.23a9.69,9.69,0,0,1,9.7,9.69h0V158.15a9.69,9.69,0,0,1-9.69,9.69h-65Z"/><path id="Tracé_136" data-name="Tracé 136" class="cls-3" d="M78.61,145.62v22.23L46.69,135.93H68.92a9.69,9.69,0,0,1,9.69,9.69Z"/><path id="Tracé_137" data-name="Tracé 137" class="cls-4" d="M46.69,158.15h9.69v9.69H46.69Z"/><path id="Tracé_138" data-name="Tracé 138" class="cls-3" d="M75.77,41.85V22.46h48.46V41.85a9.69,9.69,0,0,1-9.69,9.69H85.46A9.69,9.69,0,0,1,75.77,41.85Z"/><path id="Tracé_139" data-name="Tracé 139" class="cls-5" d="M90.09,111.48,75.77,97.16a4.84,4.84,0,0,1,6.85-6.85l7.9,7.9,31.72-27.74a4.84,4.84,0,1,1,6.38,7.29Z"/></svg>