<svg id="Capa_1" enable-background="new 0 0 511.077 511.077" height="512" viewBox="0 0 511.077 511.077" width="512" xmlns="http://www.w3.org/2000/svg"><g><g><path d="m315.664 260.649h-121.36v-16.403c0-33.513 27.167-60.68 60.68-60.68 33.513 0 60.68 27.167 60.68 60.68z" fill="#99e6fc"/><path d="m315.663 244.242v16.404h-17.133v-16.404c0-16.755-6.793-31.926-17.775-42.899-9.072-9.08-21.013-15.291-34.342-17.167 2.801-.403 5.662-.608 8.566-.608 16.755 0 31.935 6.793 42.908 17.775 10.983 10.973 17.776 26.144 17.776 42.899z" fill="#62dbfb"/><path d="m254.984 202.13c-8.051 0-14.577-6.526-14.577-14.577v-33.6h29.155v33.6c-.001 8.05-6.527 14.577-14.578 14.577z" fill="#fed2a4"/><path d="m269.56 153.953v33.605c0 8.048-6.529 14.577-14.577 14.577-2.647 0-5.147-.707-7.288-1.962 4.356-2.51 7.288-7.225 7.288-12.615v-33.605z" fill="#ffbd86"/><path d="m254.987 170.518c-31.538 0-57.104-25.566-57.104-57.104v-55.2h57.104 57.104v55.2c.001 31.538-25.566 57.104-57.104 57.104z" fill="#fed2a4"/><path d="m322.484 50.416c-1.614-2.269-2.058-5.15-1.39-7.853 1.42-5.748 2.045-11.836 2.231-17.866.166-5.375-.208-10.788-1.069-16.118-.93-5.757-6.496-9.566-12.2-8.354-3.797.807-7.382 1.51-7.933 1.619-16.797 3.319-32.81 3.682-49.825 4.837-15.487 1.051-31.026 3.351-45.039 10.405-10.03 5.049-16.29 14.829-16.357 25.467v.033c-.012 2.174-.715 4.299-2.056 6.012-6.718 8.583-10.486 19.255-10.486 30.395v22.927h19.419l.101-30.772c.012-3.554 3.898-5.655 6.935-3.809.027.016.053.032.08.048 8.169 4.922 18.336 6.824 27.97 7.898 13.31 1.484 27.527 1.563 40.892.488 6.506-.524 13.043-1.428 19.303-3.329 3.071-.932 6.081-2.089 8.928-3.585 1.069-.563 2.086-1.164 3.054-1.802 3.02-1.988 7.036.12 7.048 3.735l.102 31.127h19.419v-22.926c.002-10.367-3.261-20.328-9.127-28.577z" fill="#596c76"/><path d="m331.613 78.993v22.932h-15.95v-22.932c0-10.365-3.264-20.327-9.123-28.577-1.619-2.27-2.064-5.148-1.396-7.855 1.422-5.748 2.047-11.838 2.236-17.86.163-5.38-.206-10.793-1.071-16.122-.463-2.835-2.047-5.208-4.223-6.724.017 0 .026-.009.043-.009.548-.111 4.129-.814 7.932-1.619 5.697-1.216 11.264 2.596 12.198 8.352.857 5.328 1.234 10.742 1.071 16.122-.188 6.022-.814 12.113-2.236 17.86-.668 2.707-.223 5.585 1.388 7.855 5.867 8.249 9.131 18.211 9.131 28.577z" fill="#465a61"/><path d="m198.986 113.102h-7.529c-8.974 0-16.249-7.275-16.249-16.249 0-8.974 7.275-16.249 16.249-16.249h7.529z" fill="#fed2a4"/><path d="m311.092 113.102h7.529c8.974 0 16.249-7.275 16.249-16.249 0-8.974-7.275-16.249-16.249-16.249h-7.529z" fill="#fed2a4"/><path d="m312.089 70.789v42.62c0 31.54-25.56 57.11-57.1 57.11-2.91 0-5.77-.21-8.57-.64 27.48-4.13 48.54-27.84 48.54-56.47v-41.58c2.41-.81 4.77-1.78 7.03-2.97 1.07-.56 2.09-1.16 3.06-1.8 3.02-1.99 7.03.12 7.04 3.73z" fill="#ffbd86"/></g><g><path d="m374.882 328.498v86.021c0 21.061 17.073 38.134 38.134 38.134h59.889c21.061 0 38.134-17.073 38.134-38.134v-86.021z" fill="#596c76"/><path d="m511.039 328.499v86.021c0 21.056-17.072 38.136-38.136 38.136h-17.133c21.064 0 38.137-17.081 38.137-38.136v-86.021z" fill="#465a61"/><path d="m504.179 511.075h-122.438v-16.549c0-33.81 27.409-61.219 61.219-61.219 33.81 0 61.219 27.409 61.219 61.219z" fill="#d9b1ee"/><path d="m504.177 494.528v16.55h-17.132v-16.55c0-16.91-6.853-32.209-17.929-43.293-9.174-9.174-21.244-15.445-34.719-17.329 2.801-.394 5.662-.6 8.566-.6 16.901 0 32.209 6.853 43.285 17.929 11.076 11.084 17.929 26.383 17.929 43.293z" fill="#cb97e7"/><path d="m442.96 452.037c-8.122 0-14.707-6.584-14.707-14.707v-33.899h29.414v33.899c0 8.122-6.585 14.707-14.707 14.707z" fill="#fed2a4"/><path d="m457.665 403.432v33.903c0 8.12-6.587 14.707-14.706 14.707-2.671 0-5.193-.713-7.353-1.979 4.395-2.533 7.353-7.289 7.353-12.727v-33.903h14.706z" fill="#ffbd86"/><path d="m442.96 422.107c-33.925 0-61.427-27.502-61.427-61.427v-50.09l27.387-16.48 34.04 16.48h61.427v50.09c0 33.925-27.502 61.427-61.427 61.427z" fill="#fed2a4"/><path d="m504.383 310.587v50.095c0 33.922-27.497 61.428-61.419 61.428-2.947 0-5.842-.206-8.678-.617 29.819-4.206 52.759-29.836 52.759-60.811v-50.095z" fill="#ffbd86"/><path d="m504.287 280.065c-4.863-10.222-11.531-17.923-18.685-23.719-12.34-9.998-27.491-14.998-42.642-14.998l-3.665.1c-10.551.563-20.996 3.557-30.373 8.977l-.002.001c-2.985 1.727-5.863 3.7-8.602 5.919-7.154 5.796-13.822 13.497-18.685 23.719-4.666 9.807-6.751 20.645-6.751 31.505v19.444h6.651c19.135-5.428 27.387-35.587 27.387-35.587h.001c16.398 28.671 58.362 34.732 83.093 35.711 3.662.145 9.606-.167 12.373-.167h6.651v-19.4c0-10.86-2.085-21.698-6.751-31.505z" fill="#596c76"/><path d="m511.039 311.572v19.402s0 0-6.656 0c-2.33 0-6.904.214-10.476.206v-17.218c0-10.862-2.082-21.698-6.75-31.506-4.866-10.219-11.53-17.92-18.683-23.72-12.344-9.997-27.497-14.999-42.642-14.999l-.891.026c4.694-1.285 9.517-2.056 14.357-2.313l3.666-.103c15.145 0 30.298 5.003 42.642 14.999 7.153 5.799 13.817 13.5 18.683 23.72 4.668 9.808 6.75 20.644 6.75 31.506z" fill="#465a61"/></g><g><path d="m140.496 511.077h-121.36v-16.404c0-33.513 27.167-60.68 60.68-60.68 33.513 0 60.68 27.167 60.68 60.68z" fill="#d1f19e"/><path d="m140.492 494.67v16.404h-17.132v-16.404c0-16.755-6.793-31.926-17.766-42.899-9.08-9.08-21.013-15.291-34.342-17.167 2.801-.403 5.662-.608 8.566-.608 16.755 0 31.926 6.793 42.908 17.775 10.973 10.973 17.766 26.144 17.766 42.899z" fill="#bbec6c"/><path d="m79.816 452.558c-8.051 0-14.577-6.526-14.577-14.577v-33.6h29.155v33.6c-.001 8.051-6.527 14.577-14.578 14.577z" fill="#d88a55"/><path d="m94.391 404.381v33.605c0 8.048-6.529 14.577-14.577 14.577-2.647 0-5.147-.707-7.288-1.962 4.356-2.51 7.288-7.225 7.288-12.615v-33.605z" fill="#c57a44"/><path d="m79.819 420.947c-31.538 0-57.104-25.566-57.104-57.104v-52.66h57.104 57.104v52.66c0 31.537-25.566 57.104-57.104 57.104z" fill="#d88a55"/><g><path d="m3.194 329.421v22.927h19.419v-30.687c.012-3.553 3.997-5.734 7.036-3.895l.08.048c8.169 4.922 18.336 6.824 27.97 7.898 13.31 1.483 27.527 1.563 40.892.488 6.506-.524 13.043-1.428 19.303-3.329 3.071-.932 6.081-2.089 8.928-3.585 1.09-.574 2.127-1.189 3.112-1.84 2.99-1.978 7.08.189 7.092 3.774v31.127h19.419v-22.927-2.367c0-42.319-34.306-76.625-76.625-76.625-42.319 0-76.625 34.306-76.625 76.625v2.368z" fill="#433f43"/></g><g><path d="m156.442 327.057v25.296h-17.132v-25.296c0-39.43-29.776-71.896-68.058-76.144 2.81-.317 5.671-.48 8.566-.48 42.316 0 76.624 34.298 76.624 76.624z" fill="#302e30"/></g><path d="m23.817 363.531h-7.529c-8.974 0-16.249-7.275-16.249-16.249 0-8.974 7.275-16.249 16.249-16.249h7.529z" fill="#d88a55"/><path d="m135.923 363.531h7.529c8.974 0 16.249-7.275 16.249-16.249 0-8.974-7.275-16.249-16.249-16.249h-7.529z" fill="#d88a55"/><path d="m136.919 320.229v43.61c0 31.54-25.56 57.11-57.1 57.11-2.91 0-5.77-.21-8.57-.64 27.48-4.13 48.54-27.84 48.54-56.47v-41.58c2.41-.81 4.78-1.79 7.03-2.97 1.09-.58 2.13-1.19 3.12-1.84 2.7-1.79 6.31-.19 6.98 2.78z" fill="#c57a44"/></g><g fill="#8d9ca8"><path d="m472.799 144.049c-4.146-.991-8.299 1.564-9.289 5.703l-3.988 16.67c-14.381-37.009-41.664-53.655-61.765-63.135-3.851-1.815-8.443-.166-10.258 3.684-1.816 3.85-.167 8.443 3.683 10.259 19.771 9.324 43.494 24.355 55.328 58.454l-15.192-8.055c-3.759-1.995-8.425-.561-10.419 3.199-1.994 3.761-.562 8.426 3.199 10.42l33.565 17.795c1.126.597 2.367.898 3.61.898 1.081 0 2.163-.227 3.172-.683 2.173-.981 3.769-2.912 4.323-5.231l9.732-40.688c.992-4.141-1.561-8.3-5.701-9.29z"/><path d="m113.119 110.251-41.573-4.681c-4.232-.474-8.044 2.567-8.521 6.797-.476 4.23 2.567 8.045 6.797 8.522l17.031 1.918c-34.972 18.8-48.154 47.915-55.103 69.025-1.331 4.043.868 8.4 4.911 9.731.8.263 1.612.388 2.411.388 3.237 0 6.252-2.056 7.32-5.299 6.835-20.764 18.85-46.148 51.246-62.065l-6.135 16.063c-1.518 3.977.474 8.431 4.451 9.95.905.346 1.834.509 2.748.509 3.104 0 6.029-1.888 7.202-4.96l13.554-35.489c.85-2.227.622-4.722-.617-6.758-1.241-2.037-3.352-3.384-5.722-3.651z"/><path d="m304.574 426.984c-19.703 9.47-46.326 18.409-80.255 6.099l15.829-6.715c3.919-1.662 5.748-6.186 4.085-10.105s-6.189-5.747-10.105-4.085l-34.973 14.836c-2.195.931-3.835 2.825-4.443 5.13s-.115 4.762 1.335 6.654l25.449 33.205c1.517 1.98 3.807 3.019 6.124 3.019 1.635 0 3.284-.519 4.683-1.591 3.378-2.589 4.018-7.427 1.429-10.806l-10.423-13.599c12.079 3.889 23.374 5.444 33.807 5.444 22.208 0 40.508-7.042 54.136-13.593 3.837-1.844 5.451-6.449 3.608-10.285-1.845-3.838-6.451-5.451-10.286-3.608z"/></g></g></svg>