<svg id="Capa_1" enable-background="new 0 0 512 512" height="512" viewBox="0 0 512 512" width="512" xmlns="http://www.w3.org/2000/svg"><g><g><path d="m114.045 210.054c-4.267 0-7.726-3.459-7.726-7.726v-43.288c0-4.267 3.459-7.726 7.726-7.726s7.726 3.459 7.726 7.726v43.288c.001 4.267-3.459 7.726-7.726 7.726z" fill="#78c2a4"/></g><g><path d="m184.769 315.8c6.839-11.926 10.768-25.733 10.768-40.466 0-41.227-30.614-75.303-70.348-80.736-3.643-.498-7.363 1.322-11.143 1.322-45.007 0-59.205 34.408-59.205 79.414 0 14.733 1.536 28.54 5.162 40.466z" fill="#e5646e"/></g><g><path d="m68.537 315.8c-6.838-11.925-10.764-25.733-10.764-40.466 0-21.041 7.974-40.217 21.066-54.675l-10.648-5.312-1.02 2.353-14.968 4.563c-12.247 14.259-19.649 32.801-19.649 53.071 0 14.733 3.93 28.54 10.768 40.466z" fill="#db4655"/></g><g><path d="m111.96 195.8c-22.67 9.721-26.575 3.481-41.52 20.88l7.835 4.014 5.208-.317c10.053-.611 19.471 4.936 23.811 14.024l3.964 8.3c1.12 2.345 4.458 2.345 5.578 0l3.964-8.3c4.34-9.088 13.758-14.635 23.811-14.024l31.263 1.9c-12.661-14.74-30.489-24.913-50.683-27.678-3.645-.499-9.757-.289-13.231 1.201z" fill="#b3e59f"/></g><g><path d="m126.361 194.776c-4.017-.61-8.128-.933-12.315-.933-24.736 0-46.881 11.036-61.826 28.435l26.055-1.584c12.297-13.598 29.115-23.029 48.086-25.918z" fill="#95d6a4"/></g><g><path d="m261.969 16.543c-.716-.174-1.346-.58-1.793-1.166-5.521-7.245-13.518-12.501-22.732-14.496-2.666-.577-5.39.774-8.23.774-12.651 0-20.916 7.263-28.035 16.605-.446.586-1.077.993-1.793 1.166-14.518 3.522-18.517 14.435-16.867 30.373 1.408 13.603 2.75 21.685 16.23 23.991 3.56.609 7.692 2.792 10.98 2.25 1.881-.31 11.07 11.053 11.07 12.96l8.005 40.494h17.273v-49.516c0-1.907 1.707-3.351 3.588-3.041 3.287.542 6.747.565 10.306-.043 13.479-2.303 23.955-13.486 25.366-27.088 1.654-15.941-8.848-29.74-23.368-33.263z" fill="#b3e59f"/></g><g><path d="m225.217 76.937c-3.288.542-6.75.565-10.31-.043-13.48-2.305-23.955-13.491-25.363-27.094-1.649-15.938 8.852-29.734 23.37-33.256.716-.174 1.347-.58 1.793-1.166 5.52-7.244 13.522-12.485 22.735-14.48-2.668-.578-5.431-.898-8.271-.898-12.651 0-23.887 6.035-31.006 15.377-.446.586-1.077.993-1.793 1.166-14.518 3.522-25.019 17.318-23.37 33.256 1.408 13.603 11.883 24.789 25.363 27.094 3.56.609 7.022.586 10.31.043 1.881-.31 3.588 1.135 3.588 3.041v49.516h16.542v-49.515c0-1.906-1.707-3.351-3.588-3.041z" fill="#95d6a4"/></g><g><path d="m250.537 312.488c.234 1.862.588 3.685 1.035 5.472h171.976c.447-1.787.801-3.61 1.035-5.472 23.309-2.523 41.456-22.258 41.456-46.237 0-25.69-20.826-46.516-46.516-46.516-8.117 0-15.746 2.084-22.389 5.739 0-.058.005-.115.005-.173 0-28.88-20.549-52.961-47.824-58.419-3.8-.76-7.73 1.318-11.754 1.318-32.904 0-55.117 26.72-55.117 59.624 0 .058-4.457-2.409-4.457-2.351-6.643-3.655-14.272-5.739-22.389-5.739-25.69 0-46.516 20.826-46.516 46.516-.001 23.98 18.146 43.715 41.455 46.238z" fill="#b3e59f"/></g><g><path d="m275.261 312.488c-23.309-2.523-41.456-22.258-41.456-46.237 0-21.404 14.462-39.42 34.143-44.839-3.935-1.083-8.072-1.677-12.352-1.677-25.69 0-46.516 20.826-46.516 46.516 0 23.979 18.147 43.714 41.455 46.237 2.876 22.93 22.428 40.673 46.138 40.673h24.724c-23.708 0-43.26-17.743-46.136-40.673z" fill="#95d6a4"/></g><g><path d="m280.321 219.735c8.117 0 15.746 2.084 22.389 5.739 0-.058-.005-.115-.005-.173 0-28.664 20.246-52.593 47.216-58.285-3.989-.842-8.122-1.292-12.362-1.292-31.044 0-56.53 23.747-59.314 54.064.689-.031 1.38-.053 2.076-.053z" fill="#95d6a4"/></g><g><path d="m212.661 315.8h55.005l11.584-56.071-21.85-9.209 25.043-6.243 6.411-31.029-10.608-7.726 13.768-7.568 3.547-17.167c.962-4.654 1.431-9.373 1.414-14.081-.009-2.563-14.078-6.282-14.374-8.826-.297-2.553 13.176-3.932 12.592-6.442-.746-3.201-1.724-6.356-2.933-9.441l-6.277-16.015c-4.12-10.512-14.258-17.427-25.548-17.427h-44.555c-11.29 0-21.502 7.438-25.622 17.949l-6.277 16.015c-4.835 12.337-4.142 25.29-1.461 38.267z" fill="#ffc269"/></g><g><path d="m166.328 197.953 17.752 7.568-14.592 7.726 6.411 31.029 16.248 7.726-13.056 7.726 11.584 56.071h24.725l-27.894-135.013c-2.681-12.976-1.534-26.452 3.301-38.789l6.277-16.015c4.12-10.512 14.258-17.427 25.548-17.427h-24.724c-11.29 0-21.428 6.915-25.548 17.427l-6.277 16.015c-1.193 3.044-2.161 6.157-2.903 9.315-.593 2.525 11.764 5.157 11.461 7.727-.302 2.57-13.264 5.078-13.273 7.667-.017 4.707.452 9.426 1.414 14.081z" fill="#ffa95f"/></g><g><path d="m494.519 90.692.257-.085c1.855-.612 1.855-3.237 0-3.849l-.259-.085c-10.976-3.622-19.587-12.235-23.21-23.212-.029-.087-.057-.172-.085-.258-.612-1.855-3.236-1.853-3.848.002l-.085.259c-3.622 10.976-12.232 19.586-23.209 23.209l-.259.085c-1.855.612-1.855 3.237 0 3.849l.259.085c10.976 3.622 19.587 12.235 23.21 23.212.029.087.057.172.085.258.612 1.855 3.236 1.853 3.848-.002l.085-.257c3.623-10.978 12.234-19.589 23.211-23.211z" fill="#ffc269"/></g><g><path d="m481.273 512h-426.433l-17.64-3.6c-5.523 0-6.48-.877-6.48-6.4l8.262-144.8 28.458-22.486h289.819l134.013 18.447v148.839c.001 5.523-4.476 10-9.999 10z" fill="#f4dbb3"/></g><g><path d="m46.935 501.698v-166.984h-26.208v166.984c0 5.69 4.612 10.302 10.302 10.302h26.208c-5.69 0-10.302-4.612-10.302-10.302z" fill="#eac89f"/></g><g><g><g><path d="m502 353.161h-464.98c-5.523 0-24.12-2.858-24.12-8.381l5.76-28.98c0-5.523 13.557-16.332 19.08-16.332h464.26c5.523 0 10 4.477 10 10v33.693c0 5.523-4.477 10-10 10z" fill="#d2af8c"/></g></g></g><g><path d="m31.153 342.859v-33.09c0-5.69 4.612-10.302 10.302-10.302h-31.153c-5.69.001-10.302 4.613-10.302 10.303v33.09c0 5.69 4.612 10.302 10.302 10.302h31.153c-5.69-.001-10.302-4.613-10.302-10.303z" fill="#c69b75"/></g><g><g><g><path d="m287.375 438.027h-62.75c-11.922 0-21.587-9.665-21.587-21.587v-1.303c0-11.922 9.665-21.587 21.587-21.587h62.75c11.922 0 21.587 9.665 21.587 21.587v1.303c0 11.922-9.665 21.587-21.587 21.587z" fill="#d2af8c"/></g></g></g><g><path d="m110.416 53.081.257-.085c1.855-.612 1.855-3.237 0-3.849l-.259-.085c-10.976-3.622-19.587-12.235-23.209-23.212-.029-.087-.057-.172-.085-.258-.612-1.855-3.236-1.853-3.848.002l-.085.259c-3.623 10.976-12.233 19.587-23.21 23.209l-.259.085c-1.855.612-1.855 3.237 0 3.849l.259.085c10.976 3.622 19.587 12.235 23.21 23.212.029.087.057.172.085.258.612 1.855 3.236 1.853 3.848-.002l.085-.257c3.623-10.978 12.234-19.588 23.211-23.211z" fill="#ffc269"/></g><g><path d="m413.107 41.885.373-.123c2.691-.888 2.691-4.694 0-5.582l-.375-.124c-15.92-5.254-28.409-17.746-33.662-33.665-.041-.125-.083-.25-.123-.374-.888-2.691-4.694-2.688-5.582.003l-.124.375c-5.254 15.92-17.741 28.407-33.661 33.661l-.375.124c-2.691.888-2.691 4.694 0 5.582l.375.124c15.92 5.254 28.409 17.746 33.662 33.665.041.125.083.25.123.374.888 2.691 4.694 2.688 5.582-.003l.123-.373c5.254-15.921 17.743-28.41 33.664-33.664z" fill="#ffc269"/></g><g><g><path d="m353.043 227.824c-4.268 0-7.726-3.459-7.726-7.726 0-2.757-2.243-5.001-5-5.001-2.758 0-5.001 2.243-5.001 5.001 0 4.267-3.459 7.726-7.726 7.726s-7.726-3.459-7.726-7.726c0-11.278 9.175-20.453 20.454-20.453 11.278 0 20.453 9.175 20.453 20.453-.001 4.267-3.46 7.726-7.728 7.726z" fill="#78c2a4"/></g></g><g><path d="m423.229 276.453c-4.268 0-7.726-3.459-7.726-7.726 0-2.757-2.243-5.001-5.001-5.001s-5.001 2.243-5.001 5.001c0 4.267-3.459 7.726-7.726 7.726s-7.726-3.459-7.726-7.726c0-11.278 9.175-20.453 20.454-20.453s20.454 9.175 20.454 20.453c-.001 4.267-3.46 7.726-7.728 7.726z" fill="#78c2a4"/></g><g><path d="m334.417 276.453c-4.268 0-7.726-3.459-7.726-7.726 0-2.757-2.243-5.001-5.001-5.001-2.757 0-5 2.243-5 5.001 0 4.267-3.459 7.726-7.726 7.726s-7.726-3.459-7.726-7.726c0-11.278 9.175-20.453 20.453-20.453 11.279 0 20.454 9.175 20.454 20.453-.002 4.267-3.461 7.726-7.728 7.726z" fill="#78c2a4"/></g><g fill="#f49751"><path d="m205.136 151.313h-17.232s-23.606 5.229-23.625 10.407c.302.036 21.82 5.046 21.82 5.046h19.037c4.267 0 7.726-3.459 7.726-7.726s-3.459-7.727-7.726-7.727z"/><path d="m205.136 197.795h-14.118l-15.12 4.239c-.536 0-.753.863-1.258.967l10.752 5.06 8.819 5.187h10.925c4.267 0 7.726-3.459 7.726-7.726.001-4.268-3.459-7.727-7.726-7.727z"/><path d="m212.863 252.003c0-4.267-3.459-7.726-7.726-7.726h-4.514l-8.982 6.003-6.247 5.72 18.422 3.729h1.322c4.265 0 7.725-3.459 7.725-7.726z"/></g><path d="m187.905 151.313h-24.724c-1.186 5.05-1.787 10.215-1.805 15.393.302.036.607.06.919.06h23.805c.014-5.199.614-10.383 1.805-15.453z" fill="#f27144"/><path d="m167.891 197.795c-.536 0-1.058.055-1.563.159l3.16 15.294h24.724l-3.193-15.453z" fill="#f27144"/><path d="m175.898 244.277 3.193 15.452h24.724l-3.193-15.452z" fill="#f27144"/><path d="m253.205 151.313c-4.267 0-7.726 3.459-7.726 7.726s3.459 7.726 7.726 7.726h42.842c.312 0 .617-.024.919-.06-.019-5.178-.619-10.343-1.805-15.393h-41.956z" fill="#f49751"/><path d="m292.013 197.953c-.505-.104-1.028-.159-1.564-.159h-37.245c-4.267 0-7.726 3.459-7.726 7.726s3.459 7.726 7.726 7.726h35.649z" fill="#f49751"/><path d="m282.443 244.277h-29.238c-4.267 0-7.726 3.459-7.726 7.726s3.459 7.726 7.726 7.726h26.045z" fill="#f49751"/></g></svg>